<?xml version="1.0" encoding="UTF-8" standalone="no"?><svg xmlns="http://www.w3.org/2000/svg" xmlns:xlink="http://www.w3.org/1999/xlink" contentScriptType="application/ecmascript" contentStyleType="text/css" height="4165.625px" preserveAspectRatio="none" style="width:3615px;height:4165px;" version="1.1" viewBox="0 0 3615 4165" width="3615.625px" zoomAndPan="magnify"><defs/><g><text fill="#000000" font-family="sans-serif" font-size="43.75" font-weight="bold" lengthAdjust="spacingAndGlyphs" textLength="965.625" x="1341.4063" y="73.5474">Connecting two parties through HyperPath</text><rect fill="#FFFFFF" height="3684.7168" style="stroke: #383838; stroke-width: 3.125;" width="31.25" x="607.8125" y="449.9268"/><rect fill="#FFFFFF" height="271.106" style="stroke: #383838; stroke-width: 3.125;" width="31.25" x="623.4375" y="822.0032"/><rect fill="#FFFFFF" height="2560.7117" style="stroke: #383838; stroke-width: 3.125;" width="31.25" x="623.4375" y="1412.616"/><rect fill="#FFFFFF" height="91.5955" style="stroke: #383838; stroke-width: 3.125;" width="31.25" x="1348.4375" y="617.4927"/><rect fill="#FFFFFF" height="271.106" style="stroke: #383838; stroke-width: 3.125;" width="31.25" x="1348.4375" y="822.0032"/><rect fill="#FFFFFF" height="2722.0276" style="stroke: #383838; stroke-width: 3.125;" width="31.25" x="1348.4375" y="1412.616"/><rect fill="#FFFFFF" height="710.7483" style="stroke: #383838; stroke-width: 3.125;" width="31.25" x="1364.0625" y="3123.1384"/><rect fill="#FFFFFF" height="91.5955" style="stroke: #383838; stroke-width: 3.125;" width="31.25" x="2079.6875" y="2211.9751"/><rect fill="#FFFFFF" height="91.04" style="stroke: #383838; stroke-width: 3.125;" width="31.25" x="2079.6875" y="2416.4856"/><rect fill="#FFFFFF" height="1535.5225" style="stroke: #383838; stroke-width: 3.125;" width="31.25" x="2079.6875" y="2599.1211"/><rect fill="#FFFFFF" height="2498.2117" style="stroke: #383838; stroke-width: 3.125;" width="31.25" x="3154.6875" y="1636.4319"/><rect fill="#FFFFFF" height="91.04" style="stroke: #383838; stroke-width: 3.125;" width="31.25" x="3170.3125" y="2416.4856"/><rect fill="#FFFFFF" height="1374.2065" style="stroke: #383838; stroke-width: 3.125;" width="31.25" x="3170.3125" y="2599.1211"/><rect fill="#FFFFFF" height="236.731" style="stroke: #000000; stroke-width: 6.25;" width="1046.875" x="479.6875" y="497.7722"/><rect fill="#FFFFFF" height="236.731" style="stroke: #000000; stroke-width: 6.25;" width="1381.25" x="1932.8125" y="2092.2546"/><rect fill="#FFFFFF" height="647.2778" style="stroke: #000000; stroke-width: 6.25;" width="2834.375" x="479.6875" y="3304.1748"/><rect fill="#FFFFFF" height="369.3665" style="stroke: none; stroke-width: 3.125;" width="2834.375" x="479.6875" y="3582.0862"/><line style="stroke: #383838; stroke-width: 3.125; stroke-dasharray: 5.0,5.0;" x1="84.375" x2="84.375" y1="353.0518" y2="4162.7686"/><line style="stroke: #383838; stroke-width: 3.125; stroke-dasharray: 5.0,5.0;" x1="623.4375" x2="623.4375" y1="353.0518" y2="4162.7686"/><line style="stroke: #383838; stroke-width: 3.125; stroke-dasharray: 5.0,5.0;" x1="1364.0625" x2="1364.0625" y1="353.0518" y2="4162.7686"/><line style="stroke: #383838; stroke-width: 3.125; stroke-dasharray: 5.0,5.0;" x1="2095.3125" x2="2095.3125" y1="353.0518" y2="4162.7686"/><line style="stroke: #383838; stroke-width: 3.125; stroke-dasharray: 5.0,5.0;" x1="3170.3125" x2="3170.3125" y1="353.0518" y2="4162.7686"/><line style="stroke: #383838; stroke-width: 3.125; stroke-dasharray: 5.0,5.0;" x1="3573.4375" x2="3573.4375" y1="353.0518" y2="4162.7686"/><text fill="#000000" font-family="sans-serif" font-size="43.75" lengthAdjust="spacingAndGlyphs" textLength="103.125" x="25" y="343.8232">Alice</text><ellipse cx="85.9375" cy="135.9009" fill="#F8F8F8" rx="25" ry="25" style="stroke: #383838; stroke-width: 6.25;"/><path d="M85.9375,160.9009 L85.9375,245.2759 M45.3125,185.9009 L126.5625,185.9009 M85.9375,245.2759 L45.3125,292.1509 M85.9375,245.2759 L126.5625,292.1509 " fill="#F8F8F8" style="stroke: #383838; stroke-width: 6.25;"/><rect fill="#F8F8F8" height="146.8018" style="stroke: #383838; stroke-width: 4.6875;" width="225" x="510.9375" y="203.125"/><text fill="#000000" font-family="sans-serif" font-size="43.75" lengthAdjust="spacingAndGlyphs" textLength="134.375" x="556.25" y="267.2974">Alice's</text><text fill="#000000" font-family="sans-serif" font-size="43.75" lengthAdjust="spacingAndGlyphs" textLength="181.25" x="532.8125" y="318.8232">web app</text><rect fill="#F8F8F8" height="146.8018" style="stroke: #383838; stroke-width: 4.6875;" width="262.5" x="1232.8125" y="203.125"/><text fill="#000000" font-family="sans-serif" font-size="43.75" lengthAdjust="spacingAndGlyphs" textLength="134.375" x="1296.875" y="267.2974">Alice's</text><text fill="#000000" font-family="sans-serif" font-size="43.75" lengthAdjust="spacingAndGlyphs" textLength="218.75" x="1254.6875" y="318.8232">HyperPath</text><rect fill="#F8F8F8" height="146.8018" style="stroke: #383838; stroke-width: 4.6875;" width="262.5" x="1964.0625" y="203.125"/><text fill="#000000" font-family="sans-serif" font-size="43.75" lengthAdjust="spacingAndGlyphs" textLength="112.5" x="2039.0625" y="267.2974">Bob's</text><text fill="#000000" font-family="sans-serif" font-size="43.75" lengthAdjust="spacingAndGlyphs" textLength="218.75" x="1985.9375" y="318.8232">HyperPath</text><rect fill="#F8F8F8" height="146.8018" style="stroke: #383838; stroke-width: 4.6875;" width="225" x="3057.8125" y="203.125"/><text fill="#000000" font-family="sans-serif" font-size="43.75" lengthAdjust="spacingAndGlyphs" textLength="112.5" x="3114.0625" y="267.2974">Bob's</text><text fill="#000000" font-family="sans-serif" font-size="43.75" lengthAdjust="spacingAndGlyphs" textLength="181.25" x="3079.6875" y="318.8232">web app</text><text fill="#000000" font-family="sans-serif" font-size="43.75" lengthAdjust="spacingAndGlyphs" textLength="81.25" x="3523.4375" y="343.8232">Bob</text><ellipse cx="3573.4375" cy="135.9009" fill="#F8F8F8" rx="25" ry="25" style="stroke: #383838; stroke-width: 6.25;"/><path d="M3573.4375,160.9009 L3573.4375,245.2759 M3532.8125,185.9009 L3614.0625,185.9009 M3573.4375,245.2759 L3532.8125,292.1509 M3573.4375,245.2759 L3614.0625,292.1509 " fill="#F8F8F8" style="stroke: #383838; stroke-width: 6.25;"/><rect fill="#FFFFFF" height="3684.7168" style="stroke: #383838; stroke-width: 3.125;" width="31.25" x="607.8125" y="449.9268"/><rect fill="#FFFFFF" height="271.106" style="stroke: #383838; stroke-width: 3.125;" width="31.25" x="623.4375" y="822.0032"/><rect fill="#FFFFFF" height="2560.7117" style="stroke: #383838; stroke-width: 3.125;" width="31.25" x="623.4375" y="1412.616"/><rect fill="#FFFFFF" height="91.5955" style="stroke: #383838; stroke-width: 3.125;" width="31.25" x="1348.4375" y="617.4927"/><rect fill="#FFFFFF" height="271.106" style="stroke: #383838; stroke-width: 3.125;" width="31.25" x="1348.4375" y="822.0032"/><rect fill="#FFFFFF" height="2722.0276" style="stroke: #383838; stroke-width: 3.125;" width="31.25" x="1348.4375" y="1412.616"/><rect fill="#FFFFFF" height="710.7483" style="stroke: #383838; stroke-width: 3.125;" width="31.25" x="1364.0625" y="3123.1384"/><rect fill="#FFFFFF" height="91.5955" style="stroke: #383838; stroke-width: 3.125;" width="31.25" x="2079.6875" y="2211.9751"/><rect fill="#FFFFFF" height="91.04" style="stroke: #383838; stroke-width: 3.125;" width="31.25" x="2079.6875" y="2416.4856"/><rect fill="#FFFFFF" height="1535.5225" style="stroke: #383838; stroke-width: 3.125;" width="31.25" x="2079.6875" y="2599.1211"/><rect fill="#FFFFFF" height="2498.2117" style="stroke: #383838; stroke-width: 3.125;" width="31.25" x="3154.6875" y="1636.4319"/><rect fill="#FFFFFF" height="91.04" style="stroke: #383838; stroke-width: 3.125;" width="31.25" x="3170.3125" y="2416.4856"/><rect fill="#FFFFFF" height="1374.2065" style="stroke: #383838; stroke-width: 3.125;" width="31.25" x="3170.3125" y="2599.1211"/><polygon fill="#383838" points="570.3125,437.4268,601.5625,449.9268,570.3125,462.4268,582.8125,449.9268" style="stroke: #383838; stroke-width: 3.125;"/><line style="stroke: #383838; stroke-width: 3.125;" x1="85.9375" x2="589.0625" y1="449.9268" y2="449.9268"/><text fill="#000000" font-family="sans-serif" font-size="40.625" lengthAdjust="spacingAndGlyphs" textLength="462.5" x="107.8125" y="436.0779">offer connection to Bob</text><rect fill="none" height="236.731" style="stroke: #000000; stroke-width: 6.25;" width="1046.875" x="479.6875" y="497.7722"/><polygon fill="#EEEEEE" points="479.6875,497.7722,689.0625,497.7722,689.0625,519.6472,657.8125,550.8972,479.6875,550.8972,479.6875,497.7722" style="stroke: #000000; stroke-width: 6.25;"/><text fill="#000000" font-family="sans-serif" font-size="40.625" font-weight="bold" lengthAdjust="spacingAndGlyphs" textLength="68.75" x="526.5625" y="540.1733">opt</text><text fill="#000000" font-family="sans-serif" font-size="34.375" font-weight="bold" lengthAdjust="spacingAndGlyphs" textLength="431.25" x="735.9375" y="537.2559">[alice has no peer id yet]</text><polygon fill="#383838" points="1310.9375,604.9927,1342.1875,617.4927,1310.9375,629.9927,1323.4375,617.4927" style="stroke: #383838; stroke-width: 3.125;"/><line style="stroke: #383838; stroke-width: 3.125;" x1="639.0625" x2="1329.6875" y1="617.4927" y2="617.4927"/><text fill="#000000" font-family="sans-serif" font-size="40.625" lengthAdjust="spacingAndGlyphs" textLength="265.625" x="660.9375" y="603.6438">create peer id</text><polygon fill="#383838" points="673.4375,696.5881,642.1875,709.0881,673.4375,721.5881,660.9375,709.0881" style="stroke: #383838; stroke-width: 3.125;"/><line style="stroke: #383838; stroke-width: 3.125; stroke-dasharray: 2.0,2.0;" x1="654.6875" x2="1360.9375" y1="709.0881" y2="709.0881"/><text fill="#000000" font-family="monospace" font-size="40.625" lengthAdjust="spacingAndGlyphs" textLength="200" x="692.1875" y="693.6722">alice_id</text><polygon fill="#383838" points="1310.9375,809.5032,1342.1875,822.0032,1310.9375,834.5032,1323.4375,822.0032" style="stroke: #383838; stroke-width: 3.125;"/><line style="stroke: #383838; stroke-width: 3.125;" x1="654.6875" x2="1329.6875" y1="822.0032" y2="822.0032"/><text fill="#000000" font-family="monospace" font-size="40.625" lengthAdjust="spacingAndGlyphs" textLength="650" x="676.5625" y="806.5872">createChannel(alice_id, …)</text><line style="stroke: #383838; stroke-width: 3.125;" x1="1379.6875" x2="1510.9375" y1="961.8591" y2="961.8591"/><line style="stroke: #383838; stroke-width: 3.125;" x1="1510.9375" x2="1510.9375" y1="961.8591" y2="1002.4841"/><line style="stroke: #383838; stroke-width: 3.125;" x1="1382.8125" x2="1510.9375" y1="1002.4841" y2="1002.4841"/><polygon fill="#383838" points="1414.0625,989.9841,1382.8125,1002.4841,1414.0625,1014.9841,1401.5625,1002.4841" style="stroke: #383838; stroke-width: 3.125;"/><text fill="#000000" font-family="sans-serif" font-size="40.625" lengthAdjust="spacingAndGlyphs" textLength="281.25" x="1401.5625" y="899.1943">create random</text><text fill="#000000" font-family="sans-serif" font-size="40.625" lengthAdjust="spacingAndGlyphs" textLength="231.25" x="1401.5625" y="947.0398">session key</text><polygon fill="#383838" points="673.4375,1080.6091,642.1875,1093.1091,673.4375,1105.6091,660.9375,1093.1091" style="stroke: #383838; stroke-width: 3.125;"/><line style="stroke: #383838; stroke-width: 3.125; stroke-dasharray: 2.0,2.0;" x1="654.6875" x2="1360.9375" y1="1093.1091" y2="1093.1091"/><text fill="#000000" font-family="sans-serif" font-size="40.625" lengthAdjust="spacingAndGlyphs" textLength="331.25" x="692.1875" y="1079.2603">channel with key</text><line style="stroke: #383838; stroke-width: 3.125;" x1="639.0625" x2="770.3125" y1="1281.366" y2="1281.366"/><line style="stroke: #383838; stroke-width: 3.125;" x1="770.3125" x2="770.3125" y1="1281.366" y2="1321.991"/><line style="stroke: #383838; stroke-width: 3.125;" x1="642.1875" x2="770.3125" y1="1321.991" y2="1321.991"/><polygon fill="#383838" points="673.4375,1309.491,642.1875,1321.991,673.4375,1334.491,660.9375,1321.991" style="stroke: #383838; stroke-width: 3.125;"/><text fill="#000000" font-family="sans-serif" font-size="40.625" lengthAdjust="spacingAndGlyphs" textLength="278.125" x="660.9375" y="1170.8557">show QR code</text><text fill="#000000" font-family="sans-serif" font-size="40.625" lengthAdjust="spacingAndGlyphs" textLength="331.25" x="660.9375" y="1218.7012">with channel key</text><text fill="#000000" font-family="sans-serif" font-size="40.625" lengthAdjust="spacingAndGlyphs" textLength="71.875" x="660.9375" y="1266.5466">and</text><text fill="#000000" font-family="monospace" font-size="40.625" lengthAdjust="spacingAndGlyphs" textLength="200" x="745.3125" y="1265.535">alice_id</text><polygon fill="#383838" points="1310.9375,1400.116,1342.1875,1412.616,1310.9375,1425.116,1323.4375,1412.616" style="stroke: #383838; stroke-width: 3.125;"/><line style="stroke: #383838; stroke-width: 3.125;" x1="654.6875" x2="1329.6875" y1="1412.616" y2="1412.616"/><text fill="#000000" font-family="sans-serif" font-size="40.625" lengthAdjust="spacingAndGlyphs" textLength="256.25" x="676.5625" y="1398.7671">start channel</text><line style="stroke: #383838; stroke-width: 3.125;" x1="1379.6875" x2="1510.9375" y1="1505.1819" y2="1505.1819"/><line style="stroke: #383838; stroke-width: 3.125;" x1="1510.9375" x2="1510.9375" y1="1505.1819" y2="1545.8069"/><line style="stroke: #383838; stroke-width: 3.125;" x1="1382.8125" x2="1510.9375" y1="1545.8069" y2="1545.8069"/><polygon fill="#383838" points="1414.0625,1533.3069,1382.8125,1545.8069,1414.0625,1558.3069,1401.5625,1545.8069" style="stroke: #383838; stroke-width: 3.125;"/><text fill="#000000" font-family="sans-serif" font-size="40.625" lengthAdjust="spacingAndGlyphs" textLength="131.25" x="1401.5625" y="1490.3625">handle</text><text fill="#000000" font-family="monospace" font-size="40.625" lengthAdjust="spacingAndGlyphs" textLength="400" x="1545.3125" y="1489.3509">/hyperpath/1.0.0</text><polygon fill="#ECECEC" points="1981.25,1465.1489,1981.25,1543.2739,2690.625,1543.2739,2690.625,1496.3989,2659.375,1465.1489,1981.25,1465.1489" style="stroke: #383838; stroke-width: 3.125;"/><line style="stroke: #383838; stroke-width: 3.125;" x1="2659.375" x2="2659.375" y1="1465.1489" y2="1496.3989"/><line style="stroke: #383838; stroke-width: 3.125;" x1="2690.625" x2="2659.375" y1="1496.3989" y2="1496.3989"/><text fill="#000000" font-family="sans-serif" font-size="40.625" lengthAdjust="spacingAndGlyphs" textLength="643.75" x="2000" y="1520.05">Alices's HyperPath is the listener</text><polygon fill="#383838" points="3220.3125,1623.9319,3189.0625,1636.4319,3220.3125,1648.9319,3207.8125,1636.4319" style="stroke: #383838; stroke-width: 3.125;"/><line style="stroke: #383838; stroke-width: 3.125;" x1="3201.5625" x2="3570.3125" y1="1636.4319" y2="1636.4319"/><text fill="#000000" font-family="sans-serif" font-size="40.625" lengthAdjust="spacingAndGlyphs" textLength="250" x="3239.0625" y="1622.583">open camera</text><line style="stroke: #383838; stroke-width: 3.125;" x1="3185.9375" x2="3317.1875" y1="1776.8433" y2="1776.8433"/><line style="stroke: #383838; stroke-width: 3.125;" x1="3317.1875" x2="3317.1875" y1="1776.8433" y2="1817.4683"/><line style="stroke: #383838; stroke-width: 3.125;" x1="3189.0625" x2="3317.1875" y1="1817.4683" y2="1817.4683"/><polygon fill="#383838" points="3220.3125,1804.9683,3189.0625,1817.4683,3220.3125,1829.9683,3207.8125,1817.4683" style="stroke: #383838; stroke-width: 3.125;"/><text fill="#000000" font-family="sans-serif" font-size="40.625" lengthAdjust="spacingAndGlyphs" textLength="328.125" x="3207.8125" y="1714.1785">scan QR code on</text><text fill="#000000" font-family="sans-serif" font-size="40.625" lengthAdjust="spacingAndGlyphs" textLength="268.75" x="3207.8125" y="1762.0239">Alice's screen</text><line style="stroke: #383838; stroke-width: 3.125; stroke-dasharray: 2.0,2.0;" x1="3185.9375" x2="3317.1875" y1="2004.7546" y2="2004.7546"/><line style="stroke: #383838; stroke-width: 3.125; stroke-dasharray: 2.0,2.0;" x1="3317.1875" x2="3317.1875" y1="2004.7546" y2="2045.3796"/><line style="stroke: #383838; stroke-width: 3.125; stroke-dasharray: 2.0,2.0;" x1="3189.0625" x2="3317.1875" y1="2045.3796" y2="2045.3796"/><polygon fill="#383838" points="3220.3125,2032.8796,3189.0625,2045.3796,3220.3125,2057.8796,3207.8125,2045.3796" style="stroke: #383838; stroke-width: 3.125;"/><text fill="#000000" font-family="sans-serif" font-size="40.625" lengthAdjust="spacingAndGlyphs" textLength="259.375" x="3207.8125" y="1894.2444">QR code with</text><text fill="#000000" font-family="sans-serif" font-size="40.625" lengthAdjust="spacingAndGlyphs" textLength="231.25" x="3207.8125" y="1942.0898">session key</text><text fill="#000000" font-family="sans-serif" font-size="40.625" lengthAdjust="spacingAndGlyphs" textLength="71.875" x="3207.8125" y="1989.9353">and</text><text fill="#000000" font-family="monospace" font-size="40.625" lengthAdjust="spacingAndGlyphs" textLength="200" x="3292.1875" y="1988.9236">alice_id</text><rect fill="none" height="236.731" style="stroke: #000000; stroke-width: 6.25;" width="1381.25" x="1932.8125" y="2092.2546"/><polygon fill="#EEEEEE" points="1932.8125,2092.2546,2142.1875,2092.2546,2142.1875,2114.1296,2110.9375,2145.3796,1932.8125,2145.3796,1932.8125,2092.2546" style="stroke: #000000; stroke-width: 6.25;"/><text fill="#000000" font-family="sans-serif" font-size="40.625" font-weight="bold" lengthAdjust="spacingAndGlyphs" textLength="68.75" x="1979.6875" y="2134.6558">opt</text><text fill="#000000" font-family="sans-serif" font-size="34.375" font-weight="bold" lengthAdjust="spacingAndGlyphs" textLength="415.625" x="2189.0625" y="2131.7383">[bob has no peer id yet]</text><polygon fill="#383838" points="2145.3125,2199.4751,2114.0625,2211.9751,2145.3125,2224.4751,2132.8125,2211.9751" style="stroke: #383838; stroke-width: 3.125;"/><line style="stroke: #383838; stroke-width: 3.125;" x1="2126.5625" x2="3151.5625" y1="2211.9751" y2="2211.9751"/><text fill="#000000" font-family="sans-serif" font-size="40.625" lengthAdjust="spacingAndGlyphs" textLength="265.625" x="2164.0625" y="2198.1262">create peer id</text><polygon fill="#383838" points="3117.1875,2291.0706,3148.4375,2303.5706,3117.1875,2316.0706,3129.6875,2303.5706" style="stroke: #383838; stroke-width: 3.125;"/><line style="stroke: #383838; stroke-width: 3.125; stroke-dasharray: 2.0,2.0;" x1="2095.3125" x2="3135.9375" y1="2303.5706" y2="2303.5706"/><text fill="#000000" font-family="monospace" font-size="40.625" lengthAdjust="spacingAndGlyphs" textLength="150" x="2117.1875" y="2288.1546">bob_id</text><polygon fill="#383838" points="2145.3125,2403.9856,2114.0625,2416.4856,2145.3125,2428.9856,2132.8125,2416.4856" style="stroke: #383838; stroke-width: 3.125;"/><line style="stroke: #383838; stroke-width: 3.125;" x1="2126.5625" x2="3167.1875" y1="2416.4856" y2="2416.4856"/><text fill="#000000" font-family="monospace" font-size="40.625" lengthAdjust="spacingAndGlyphs" textLength="900" x="2164.0625" y="2401.0696">createChannel(bob_id, key, alice_id)</text><polygon fill="#383838" points="3117.1875,2495.0256,3148.4375,2507.5256,3117.1875,2520.0256,3129.6875,2507.5256" style="stroke: #383838; stroke-width: 3.125;"/><line style="stroke: #383838; stroke-width: 3.125; stroke-dasharray: 2.0,2.0;" x1="2095.3125" x2="3135.9375" y1="2507.5256" y2="2507.5256"/><text fill="#000000" font-family="sans-serif" font-size="40.625" lengthAdjust="spacingAndGlyphs" textLength="153.125" x="2117.1875" y="2493.6768">channel</text><polygon fill="#383838" points="2145.3125,2586.6211,2114.0625,2599.1211,2145.3125,2611.6211,2132.8125,2599.1211" style="stroke: #383838; stroke-width: 3.125;"/><line style="stroke: #383838; stroke-width: 3.125;" x1="2126.5625" x2="3167.1875" y1="2599.1211" y2="2599.1211"/><text fill="#000000" font-family="sans-serif" font-size="40.625" lengthAdjust="spacingAndGlyphs" textLength="256.25" x="2164.0625" y="2585.2722">start channel</text><polygon fill="#ECECEC" points="1587.5,2640.7166,1587.5,2862.5916,2603.125,2862.5916,2603.125,2671.9666,2571.875,2640.7166,1587.5,2640.7166" style="stroke: #383838; stroke-width: 3.125;"/><line style="stroke: #383838; stroke-width: 3.125;" x1="2571.875" x2="2571.875" y1="2640.7166" y2="2671.9666"/><line style="stroke: #383838; stroke-width: 3.125;" x1="2603.125" x2="2571.875" y1="2671.9666" y2="2671.9666"/><text fill="#000000" font-family="sans-serif" font-size="40.625" lengthAdjust="spacingAndGlyphs" textLength="950" x="1606.25" y="2695.6177">HyperPath knows whether to listen or dial based</text><text fill="#000000" font-family="sans-serif" font-size="40.625" lengthAdjust="spacingAndGlyphs" textLength="409.375" x="1606.25" y="2743.4631">on the parameters to</text><text fill="#000000" font-family="monospace" font-size="40.625" lengthAdjust="spacingAndGlyphs" textLength="325" x="2028.125" y="2742.4515">createChannel</text><text fill="#000000" font-family="sans-serif" font-size="40.625" lengthAdjust="spacingAndGlyphs" textLength="150" x="2353.125" y="2743.4631">. If only</text><text fill="#000000" font-family="sans-serif" font-size="40.625" lengthAdjust="spacingAndGlyphs" textLength="853.125" x="1606.25" y="2791.3086">the own peer id is given, it will listen. If the</text><text fill="#000000" font-family="sans-serif" font-size="40.625" lengthAdjust="spacingAndGlyphs" textLength="837.5" x="1606.25" y="2839.1541">desired remote peer id is given, it will dial.</text><line style="stroke: #383838; stroke-width: 3.125;" x1="2110.9375" x2="2242.1875" y1="2945.0134" y2="2945.0134"/><line style="stroke: #383838; stroke-width: 3.125;" x1="2242.1875" x2="2242.1875" y1="2945.0134" y2="2985.6384"/><line style="stroke: #383838; stroke-width: 3.125;" x1="2114.0625" x2="2242.1875" y1="2985.6384" y2="2985.6384"/><polygon fill="#383838" points="2145.3125,2973.1384,2114.0625,2985.6384,2145.3125,2998.1384,2132.8125,2985.6384" style="stroke: #383838; stroke-width: 3.125;"/><text fill="#000000" font-family="monospace" font-size="40.625" lengthAdjust="spacingAndGlyphs" textLength="1000" x="2132.8125" y="2929.1824">dialProtocol(alice_id, /hyperpath/1.0.0)</text><polygon fill="#ECECEC" points="1437.5,2905.2582,1437.5,2983.3832,2062.5,2983.3832,2062.5,2936.5082,2031.25,2905.2582,1437.5,2905.2582" style="stroke: #383838; stroke-width: 3.125;"/><line style="stroke: #383838; stroke-width: 3.125;" x1="2031.25" x2="2031.25" y1="2905.2582" y2="2936.5082"/><line style="stroke: #383838; stroke-width: 3.125;" x1="2062.5" x2="2031.25" y1="2936.5082" y2="2936.5082"/><text fill="#000000" font-family="sans-serif" font-size="40.625" lengthAdjust="spacingAndGlyphs" textLength="559.375" x="1456.25" y="2960.1593">Bob's HyperPath is the dialer</text><line style="stroke: #383838; stroke-width: 3.125;" x1="1395.3125" x2="1426.5625" y1="3123.1384" y2="3135.6384"/><line style="stroke: #383838; stroke-width: 3.125;" x1="1395.3125" x2="2076.5625" y1="3123.1384" y2="3123.1384"/><text fill="#000000" font-family="sans-serif" font-size="40.625" lengthAdjust="spacingAndGlyphs" textLength="609.375" x="1448.4375" y="3062.4146">send identify msg over stream:</text><text fill="#000000" font-family="sans-serif" font-size="40.625" lengthAdjust="spacingAndGlyphs" textLength="371.875" x="1448.4375" y="3110.26">"I am Bob [bob_id]"</text><line style="stroke: #383838; stroke-width: 3.125;" x1="1395.3125" x2="1526.5625" y1="3216.6748" y2="3216.6748"/><line style="stroke: #383838; stroke-width: 3.125;" x1="1526.5625" x2="1526.5625" y1="3216.6748" y2="3257.2998"/><line style="stroke: #383838; stroke-width: 3.125;" x1="1398.4375" x2="1526.5625" y1="3257.2998" y2="3257.2998"/><polygon fill="#383838" points="1429.6875,3244.7998,1398.4375,3257.2998,1429.6875,3269.7998,1417.1875,3257.2998" style="stroke: #383838; stroke-width: 3.125;"/><text fill="#000000" font-family="sans-serif" font-size="40.625" lengthAdjust="spacingAndGlyphs" textLength="331.25" x="1417.1875" y="3201.8555">decrypt message</text><rect fill="none" height="647.2778" style="stroke: #000000; stroke-width: 6.25;" width="2834.375" x="479.6875" y="3304.1748"/><polygon fill="#EEEEEE" points="479.6875,3304.1748,673.4375,3304.1748,673.4375,3326.0498,642.1875,3357.2998,479.6875,3357.2998,479.6875,3304.1748" style="stroke: #000000; stroke-width: 6.25;"/><text fill="#000000" font-family="sans-serif" font-size="40.625" font-weight="bold" lengthAdjust="spacingAndGlyphs" textLength="53.125" x="526.5625" y="3346.5759">alt</text><text fill="#000000" font-family="sans-serif" font-size="34.375" font-weight="bold" lengthAdjust="spacingAndGlyphs" textLength="243.75" x="720.3125" y="3343.6584">[decrypt fails]</text><line style="stroke: #383838; stroke-width: 3.125;" x1="1395.3125" x2="1526.5625" y1="3424.8657" y2="3424.8657"/><line style="stroke: #383838; stroke-width: 3.125;" x1="1526.5625" x2="1526.5625" y1="3424.8657" y2="3465.4907"/><line style="stroke: #383838; stroke-width: 3.125;" x1="1398.4375" x2="1526.5625" y1="3465.4907" y2="3465.4907"/><polygon fill="#383838" points="1429.6875,3452.9907,1398.4375,3465.4907,1429.6875,3477.9907,1417.1875,3465.4907" style="stroke: #383838; stroke-width: 3.125;"/><text fill="#000000" font-family="sans-serif" font-size="40.625" lengthAdjust="spacingAndGlyphs" textLength="250" x="1417.1875" y="3410.0464">close stream</text><polygon fill="#383838" points="689.0625,3543.6157,657.8125,3556.1157,689.0625,3568.6157,676.5625,3556.1157" style="stroke: #383838; stroke-width: 3.125;"/><line style="stroke: #383838; stroke-width: 3.125; stroke-dasharray: 2.0,2.0;" x1="670.3125" x2="1360.9375" y1="3556.1157" y2="3556.1157"/><text fill="#000000" font-family="sans-serif" font-size="40.625" lengthAdjust="spacingAndGlyphs" textLength="271.875" x="707.8125" y="3542.2668">report error???</text><line style="stroke: #000000; stroke-width: 3.125; stroke-dasharray: 2.0,2.0;" x1="479.6875" x2="3314.0625" y1="3585.2112" y2="3585.2112"/><text fill="#000000" font-family="sans-serif" font-size="34.375" font-weight="bold" lengthAdjust="spacingAndGlyphs" textLength="321.875" x="495.3125" y="3618.4448">[decrypt succeeds]</text><line style="stroke: #383838; stroke-width: 3.125;" x1="2073.4375" x2="2042.1875" y1="3741.3208" y2="3753.8208"/><line style="stroke: #383838; stroke-width: 3.125;" x1="1395.3125" x2="2076.5625" y1="3741.3208" y2="3741.3208"/><text fill="#000000" font-family="sans-serif" font-size="40.625" lengthAdjust="spacingAndGlyphs" textLength="609.375" x="1417.1875" y="3680.5969">send identify msg over stream:</text><text fill="#000000" font-family="sans-serif" font-size="40.625" lengthAdjust="spacingAndGlyphs" textLength="412.5" x="1417.1875" y="3728.4424">"I am Alice [alice_id]"</text><polygon fill="#383838" points="689.0625,3821.3867,657.8125,3833.8867,689.0625,3846.3867,676.5625,3833.8867" style="stroke: #383838; stroke-width: 3.125;"/><line style="stroke: #383838; stroke-width: 3.125; stroke-dasharray: 2.0,2.0;" x1="670.3125" x2="1345.3125" y1="3833.8867" y2="3833.8867"/><text fill="#000000" font-family="sans-serif" font-size="40.625" lengthAdjust="spacingAndGlyphs" textLength="437.5" x="707.8125" y="3820.0378">connection succeeded</text><polygon fill="#383838" points="3132.8125,3912.9822,3164.0625,3925.4822,3132.8125,3937.9822,3145.3125,3925.4822" style="stroke: #383838; stroke-width: 3.125;"/><line style="stroke: #383838; stroke-width: 3.125; stroke-dasharray: 2.0,2.0;" x1="2110.9375" x2="3151.5625" y1="3925.4822" y2="3925.4822"/><text fill="#000000" font-family="sans-serif" font-size="40.625" lengthAdjust="spacingAndGlyphs" textLength="437.5" x="2132.8125" y="3911.6333">connection succeeded</text><polygon fill="#ECECEC" points="518.75,3988.9526,518.75,4113.9526,3275,4113.9526,3275,4020.2026,3243.75,3988.9526,518.75,3988.9526" style="stroke: #383838; stroke-width: 3.125;"/><line style="stroke: #383838; stroke-width: 3.125;" x1="3243.75" x2="3243.75" y1="3988.9526" y2="4020.2026"/><line style="stroke: #383838; stroke-width: 3.125;" x1="3275" x2="3243.75" y1="4020.2026" y2="4020.2026"/><text fill="#000000" font-family="sans-serif" font-size="40.625" lengthAdjust="spacingAndGlyphs" textLength="1028.125" x="1368.75" y="4043.8538">Alice and Bob can now communicate over HyperPath</text><text fill="#000000" font-family="sans-serif" font-size="40.625" lengthAdjust="spacingAndGlyphs" textLength="990.625" x="1368.75" y="4091.6992">using the API for sending and receiving messages.</text></g></svg>